<?xml version="1.0" standalone="no"?>
<!DOCTYPE svg PUBLIC "-//W3C//DTD SVG 20010904//EN"
 "http://www.w3.org/TR/2001/REC-SVG-20010904/DTD/svg10.dtd">
<svg version="1.0" xmlns="http://www.w3.org/2000/svg"
 width="1112.000000pt" height="1112.000000pt" viewBox="0 0 1112.000000 1112.000000"
 preserveAspectRatio="xMidYMid meet">
<metadata>
Created by potrace 1.14, written by Peter Selinger 2001-2017
</metadata>
<g transform="translate(0.000000,1112.000000) scale(0.100000,-0.100000)"
fill="#000000" stroke="none">
<path d="M5230 11104 c-797 -56 -1500 -246 -2175 -589 -534 -271 -999 -608
-1420 -1030 -856 -855 -1403 -1948 -1574 -3140 -49 -338 -67 -871 -41 -1201
95 -1204 553 -2307 1333 -3215 885 -1029 2132 -1704 3469 -1879 287 -37 410
-44 743 -44 356 0 539 13 845 60 786 120 1541 411 2208 851 1039 685 1828
1713 2217 2888 383 1157 373 2440 -28 3585 -680 1941 -2383 3355 -4407 3660
-282 42 -418 52 -770 55 -190 1 -370 1 -400 -1z m-1430 -2394 c79 -13 190 -64
248 -115 59 -51 127 -150 159 -231 l28 -69 3 -392 c2 -216 5 -393 8 -393 3 0
190 161 417 358 516 448 540 468 662 551 184 125 348 202 540 252 89 24 94 24
655 24 509 0 575 -2 665 -19 219 -40 428 -128 605 -254 121 -86 307 -271 393
-392 125 -177 219 -398 264 -625 15 -75 18 -142 18 -395 0 -291 -1 -308 -23
-370 -64 -185 -231 -326 -416 -352 -230 -33 -446 84 -546 294 -49 103 -60 182
-60 438 0 124 -5 202 -14 236 -46 172 -207 330 -376 368 -100 23 -838 23 -924
1 -83 -22 -218 -94 -303 -162 -39 -32 -407 -353 -817 -713 l-745 -655 -1
-1525 c0 -1658 3 -1576 -55 -1689 -32 -63 -126 -165 -191 -207 -201 -129 -467
-100 -637 70 -34 34 -77 89 -94 123 -68 126 -63 -92 -63 2783 0 2308 2 2613
15 2665 53 201 230 364 430 395 73 11 83 11 155 0z"/>
</g>
</svg>
