<?xml version="1.0" encoding="UTF-8"?><svg id="Layer_1" xmlns="http://www.w3.org/2000/svg" xmlns:xlink="http://www.w3.org/1999/xlink" viewBox="0 0 787.85 785.2"><defs><style>.cls-1{fill:none;}.cls-2{fill:#e21317;}.cls-3{fill:#b21c17;}.cls-4{clip-path:url(#clippath);}</style><clipPath id="clippath"><rect class="cls-1" x="165.95" y="46.2" width="621.9" height="739"/></clipPath></defs><path class="cls-2" d="M784.51,392.28c0,216.63-175.6,392.25-392.26,392.25S0,608.91,0,392.28,175.62,0,392.26,0s392.26,175.64,392.26,392.28"/><g class="cls-4"><path class="cls-3" d="M579.01,46.2c98.43,71.28,162.51,187.04,162.51,317.86,0,216.64-175.63,392.26-392.27,392.26-66.22,0-128.57-16.48-183.3-45.48,64.58,46.74,143.86,74.35,229.64,74.35,216.65,0,392.26-175.62,392.26-392.24,0-150.38-84.65-280.92-208.84-346.76"/></g></svg>